<svg width="50" height="50" viewBox="0 0 50 50" fill="none" xmlns="http://www.w3.org/2000/svg">
<g clip-path="url(#clip0_100_2)">
<path d="M30.8601 50C30.8086 50 30.7571 49.9971 30.7056 49.9914C30.1162 49.9298 29.624 49.5178 29.4552 48.9499L25.8213 36.4481C25.621 35.7657 25.9386 35.0375 26.5767 34.7213C26.8371 34.5911 27.066 34.4437 27.292 34.2577C27.6668 33.9487 28.1676 33.8486 28.6339 33.983C29.561 34.2563 30.3879 34.2434 31.0832 33.9486C31.8271 33.6482 32.4365 33.053 32.9086 32.1746C33.1376 31.7511 33.5581 31.4665 34.0332 31.4121C35.0575 31.2976 35.8501 30.9657 36.388 30.4263C36.5053 30.3104 36.6283 30.1674 36.7284 30.0257C37.0546 29.5721 37.604 29.3447 38.1648 29.432C38.717 29.525 39.1663 29.9241 39.3265 30.4606L43.5155 44.6125C43.6844 45.1819 43.4927 45.7957 43.032 46.1691C42.5713 46.5397 41.9246 46.5997 41.4096 46.315L35.401 43.0334L32.1476 49.2332C31.8901 49.7095 31.3923 50 30.8601 50Z" fill="#E63950"/>
<path d="M19.1973 49.9999C18.6651 49.9999 18.1672 49.7095 17.9096 49.2331L14.6563 43.0334L8.64761 46.3153C8.13262 46.6 7.48304 46.5399 7.02529 46.1679C6.5646 45.7946 6.37288 45.1808 6.54174 44.6113L10.7336 30.518C10.8938 29.9815 11.3459 29.5824 11.8981 29.4908C12.4417 29.3949 13.0054 29.6281 13.3317 30.0845C13.4261 30.2189 13.5205 30.3362 13.6178 30.4322C14.1214 30.9544 14.8682 31.272 15.9126 31.4179C16.3647 31.4794 16.7623 31.7498 16.9855 32.1461C17.4805 33.0174 18.0785 33.6039 18.7653 33.89C19.492 34.2134 20.3361 34.219 21.2946 33.9287C21.7667 33.7856 22.2789 33.89 22.6566 34.2048C22.8883 34.398 23.1631 34.5782 23.5235 34.7727C24.1359 35.1017 24.4334 35.8142 24.236 36.4795L20.6022 48.9512C20.4333 49.5191 19.9383 49.9298 19.3489 49.9912C19.2975 49.9971 19.2488 49.9999 19.1973 49.9999Z" fill="#FF6C6C"/>
<path d="M25.0002 38.0847C23.6866 38.0847 22.5166 37.651 21.4064 36.9201C20.0387 37.2091 18.754 37.0918 17.6066 36.581C16.5221 36.1289 15.578 35.3263 14.8139 34.199C13.4348 33.9057 12.3532 33.3406 11.5235 32.4822C10.6312 31.576 10.0876 30.3932 9.8325 29.1473C8.67653 28.3862 7.85253 27.4105 7.38041 26.2388C6.91972 25.1386 6.81385 23.8797 7.06856 22.5735C6.33031 21.4519 5.95557 20.2659 5.95557 19.0398C5.95557 17.8094 6.3476 16.6048 7.12013 15.4488C6.8369 14.074 6.94843 12.7993 7.45776 11.6504C7.90986 10.5631 8.71384 9.61888 9.84119 8.85348C10.133 7.47434 10.6996 6.39279 11.558 5.56302C12.4106 4.71177 13.5351 4.13955 14.897 3.86911C15.6582 2.71598 16.631 1.8948 17.8012 1.42132C18.9028 0.963464 20.1618 0.851929 21.4665 1.10801C23.7069 -0.3727 26.285 -0.384126 28.5911 1.16094C29.956 0.87908 31.255 0.99501 32.3909 1.49711C33.4782 1.95067 34.4225 2.75319 35.1864 3.88054C36.5655 4.17383 37.6471 4.73892 38.4768 5.59731C39.3295 6.45286 39.899 7.57591 40.1708 8.93356C41.3239 9.69467 42.1479 10.6703 42.62 11.8407C43.0807 12.9409 43.1866 14.1998 42.9319 15.506C43.6701 16.6276 44.0449 17.8136 44.0449 19.0397C44.0449 20.2701 43.6528 21.4747 42.8803 22.6307C43.1635 24.0055 43.052 25.2802 42.5427 26.4291C42.0906 27.5178 41.2837 28.4635 40.1535 29.2289C39.831 30.7098 39.2867 31.6581 38.4653 32.495C37.5926 33.3648 36.4652 33.94 35.1033 34.2103C34.3422 35.362 33.3693 36.1846 32.1991 36.6581C31.1004 37.1201 29.8471 37.229 28.5366 36.9714C27.4684 37.6574 26.2847 38.0847 25.0002 38.0847Z" fill="#FABE2C"/>
<path d="M25.0002 38.0846C26.2849 38.0846 27.4687 37.6571 28.5368 36.9716C29.8473 37.2291 31.1005 37.1203 32.1993 36.6583C33.3695 36.1847 34.3424 35.3622 35.1035 34.2105C36.4654 33.9401 37.5928 33.365 38.4655 32.4952C39.283 31.6622 39.8294 30.7181 40.1536 29.2291C41.2838 28.4637 42.0907 27.518 42.5428 26.4293C43.0522 25.2804 43.1637 24.0058 42.8805 22.6309C43.653 21.4749 44.045 20.2703 44.045 19.0399C44.045 17.8138 43.6702 16.6279 42.932 15.5062C43.1867 14.2 43.0808 12.941 42.6202 11.8409C42.1481 10.6706 41.3241 9.69487 40.1709 8.93376C39.8991 7.57612 39.3297 6.45306 38.477 5.59751C37.6473 4.73913 36.5657 4.17403 35.1866 3.88074C34.4226 2.75339 33.4784 1.95077 32.3911 1.49731C31.2551 0.995115 29.9561 0.879283 28.5913 1.16115C27.4368 0.387928 26.2146 0.0049809 25.0003 0.000488281V38.0846H25.0002Z" fill="#FF9100"/>
<path d="M25 32.2247C17.7295 32.2247 11.8152 26.3104 11.8152 19.0398C11.8152 11.7693 17.7295 5.85498 25 5.85498C32.2706 5.85498 38.1849 11.7693 38.1849 19.0398C38.1849 26.3104 32.2706 32.2247 25 32.2247Z" fill="#FED843"/>
<path d="M25.0002 32.2247C32.2708 32.2247 38.1851 26.3104 38.1851 19.0398C38.1851 11.7693 32.2708 5.85498 25.0002 5.85498V32.2247Z" fill="#FABE2C"/>
<path d="M27.3377 24.4891L25 23.2745L22.6623 24.4891C22.173 24.7424 21.575 24.698 21.1258 24.3747C20.6766 24.0485 20.4506 23.4963 20.5421 22.9497L20.9713 20.3473L19.0972 18.4975C18.6893 18.0999 18.5645 17.5102 18.731 17.0011C18.9027 16.4746 19.3576 16.0883 19.9069 16.0054L22.5107 15.6134L23.6895 13.2571C24.1874 12.2642 25.8126 12.2642 26.3105 13.2571L27.4893 15.6134L30.0931 16.0054C30.6424 16.0884 31.0974 16.4747 31.2691 17.0011C31.4408 17.529 31.3005 18.1084 30.9028 18.4975L29.0287 20.3473L29.458 22.9497C29.5496 23.4963 29.3235 24.0485 28.8742 24.3747C28.4281 24.698 27.831 24.7458 27.3377 24.4891Z" fill="#FABE2C"/>
<path d="M25.0002 23.2747L27.338 24.4892C27.8324 24.7464 28.4291 24.6975 28.8744 24.3747C29.3237 24.0485 29.5497 23.4963 29.4582 22.9498L29.029 20.3474L30.9031 18.4976C31.3008 18.1085 31.441 17.529 31.2693 17.0012C31.0976 16.4746 30.6427 16.0884 30.0933 16.0055L27.4895 15.6134L26.3107 13.2572C26.0618 12.7607 25.5311 12.5125 25.0002 12.5125V23.2747Z" fill="#FF9100"/>
</g>
<defs>
<clipPath id="clip0_100_2">
<rect width="50" height="50" fill="white"/>
</clipPath>
</defs>
</svg>
