<svg width="40" height="40" viewBox="0 0 40 40" fill="none" xmlns="http://www.w3.org/2000/svg">
<g clip-path="url(#clip0_110_45)">
<path d="M8.93395 31.0657L3.40341 39.3616H0.638184C0.638184 34.7799 4.3524 31.0657 8.93395 31.0657Z" fill="#C8E6FF"/>
<path d="M8.93434 31.0657C11.4435 31.0657 13.6923 32.1797 15.2135 33.9399L11.7043 39.3616H3.40381C3.40381 34.7799 5.8799 31.0657 8.93434 31.0657Z" fill="#ADD9FF"/>
<path d="M31.0659 31.0657L36.5965 39.3616H39.3618C39.3617 34.7799 35.6475 31.0657 31.0659 31.0657Z" fill="#ED2F49"/>
<path d="M31.0658 31.0657C28.5566 31.0657 26.3078 32.1797 24.7866 33.9399L28.2958 39.3615H36.5964C36.5963 34.7799 34.1202 31.0657 31.0658 31.0657Z" fill="#FF455E"/>
<path d="M18.4339 0.69623C18.266 0.658809 18.0917 0.638184 17.9124 0.638184C16.5933 0.638184 15.5239 1.70756 15.5239 3.02669C15.5239 3.56747 15.7037 4.06607 16.0067 4.46646L19.9999 9.74457L18.4339 0.69623Z" fill="#FE7074"/>
<path d="M22.0874 0.638184C21.9082 0.638184 21.7339 0.658809 21.566 0.69623L20 9.74457L23.9933 4.46646C24.2962 4.06615 24.476 3.56747 24.476 3.02669C24.4759 1.70756 23.4066 0.638184 22.0874 0.638184Z" fill="#ED2F49"/>
<path d="M22.6855 3.02675C22.6855 1.88715 22.2066 0.93457 21.5659 0.696289C20.8926 0.846523 20.3263 1.28043 20 1.86683C19.6736 1.28043 19.1074 0.846523 18.4341 0.696289C17.7934 0.934648 17.3145 1.88715 17.3145 3.02675C17.3145 3.56753 17.4223 4.06613 17.6041 4.46652L19.9999 9.74463L22.3959 4.46652C22.5776 4.0662 22.6855 3.56753 22.6855 3.02675Z" fill="#FF455E"/>
<path d="M14.4673 10.3831V18.768C16.7827 18.768 18.6598 16.891 18.6598 14.5755C18.6598 12.2601 16.7827 10.3831 14.4673 10.3831Z" fill="#A0613C"/>
<path d="M17.0939 14.5755C17.0939 12.2601 15.9178 10.3831 14.4669 10.3831C12.1514 10.3831 10.2744 12.2601 10.2744 14.5755C10.2744 16.891 12.1514 18.768 14.4669 18.768C15.9178 18.768 17.0939 16.8911 17.0939 14.5755Z" fill="#BF7447"/>
<path d="M20 20.1702V28.5591C22.3166 28.5591 24.1944 26.6812 24.1944 24.3647C24.1944 22.0481 22.3166 20.1702 20 20.1702Z" fill="#FEBB8E"/>
<path d="M22.6284 24.3647C22.6284 22.0481 21.4517 20.1702 20.0001 20.1702C17.6836 20.1702 15.8057 22.0481 15.8057 24.3647C15.8057 26.6812 17.6836 28.5591 20.0001 28.5591C21.4517 28.5591 22.6284 26.6812 22.6284 24.3647Z" fill="#FCD5A2"/>
<path d="M8.93408 20V28.7294C11.3446 28.7294 13.2988 26.7753 13.2988 24.3648C13.2988 21.9541 11.3446 20 8.93408 20Z" fill="#FEAB75"/>
<path d="M11.6689 24.3648C11.6689 21.9542 10.4445 20 8.93402 20C6.52347 20 4.56934 21.9541 4.56934 24.3648C4.56934 26.7753 6.52347 28.7294 8.93402 28.7294C10.4445 28.7294 11.6689 26.7753 11.6689 24.3648Z" fill="#FF9B5F"/>
<path d="M31.0659 20.1702V28.5594C33.3825 28.5594 35.2604 26.6814 35.2604 24.3648C35.2604 22.0481 33.3825 20.1702 31.0659 20.1702Z" fill="#804E30"/>
<path d="M33.6939 24.3648C33.6939 22.0482 32.5172 20.1702 31.0656 20.1702C28.7491 20.1702 26.8711 22.0481 26.8711 24.3648C26.8711 26.6813 28.7491 28.5593 31.0656 28.5593C32.5172 28.5593 33.6939 26.6813 33.6939 24.3648Z" fill="#A0613C"/>
<path d="M20 31.0657L25.5305 39.3616H28.2958C28.2958 34.7799 24.5816 31.0657 20 31.0657Z" fill="#FFBB02"/>
<path d="M19.9999 31.0657C15.4182 31.0657 11.7041 34.7799 11.7041 39.3616H25.5305C25.5305 34.7799 23.0544 31.0657 19.9999 31.0657Z" fill="#FFCC3D"/>
<path d="M25.5327 10.3831V18.768C27.8481 18.768 29.7252 16.891 29.7252 14.5755C29.7252 12.2601 27.8481 10.3831 25.5327 10.3831Z" fill="#FEAB75"/>
<path d="M28.1598 14.5755C28.1598 12.2601 26.9836 10.3831 25.5328 10.3831C23.2174 10.3831 21.3403 12.2601 21.3403 14.5755C21.3403 16.891 23.2174 18.768 25.5328 18.768C26.9836 18.768 28.1598 16.8911 28.1598 14.5755Z" fill="#FEBB8E"/>
<path d="M19.491 10.1297C19.6116 10.2892 19.8 10.3829 20 10.3829C20.2 10.3829 20.3884 10.2893 20.5089 10.1297L24.5021 4.85163C24.9025 4.32249 25.1142 3.69148 25.1142 3.02679C25.1143 1.35789 23.7565 0 22.0874 0C21.2996 0 20.5551 0.307343 20 0.836092C19.4449 0.307343 18.7003 0 17.9126 0C16.2436 0 14.8857 1.35789 14.8857 3.02679C14.8857 3.69156 15.0973 4.32265 15.4978 4.85163L19.491 10.1297ZM17.9126 1.27656C18.5469 1.27656 19.133 1.62164 19.4424 2.17726C19.555 2.37968 19.7684 2.50507 20.0001 2.50507C20.2318 2.50507 20.4452 2.3796 20.5578 2.17726C20.8671 1.62172 21.4532 1.27656 22.0874 1.27656C23.0525 1.27656 23.8377 2.06171 23.8377 3.02679C23.8377 3.41124 23.7155 3.77577 23.4842 4.0814L20.0001 8.6867L16.5159 4.08132C16.2846 3.77577 16.1625 3.41109 16.1625 3.02671C16.1623 2.06179 16.9475 1.27656 17.9126 1.27656Z" fill="#1D2328"/>
<path d="M14.4669 19.3618C17.106 19.3618 19.2531 17.2146 19.2531 14.5755C19.2531 11.9364 17.106 9.78931 14.4669 9.78931C11.8278 9.78931 9.68066 11.9363 9.68066 14.5755C9.68066 17.2146 11.8278 19.3618 14.4669 19.3618ZM14.4669 11.0659C16.4021 11.0659 17.9765 12.6403 17.9765 14.5755C17.9765 16.5108 16.4021 18.0851 14.4669 18.0851C12.5317 18.0851 10.9573 16.5108 10.9573 14.5755C10.9573 12.6403 12.5317 11.0659 14.4669 11.0659Z" fill="#1D2328"/>
<path d="M14.4619 16.8085C15.204 16.8085 15.896 16.4405 16.3126 15.824C16.51 15.5319 16.4334 15.1352 16.1413 14.9377C15.8494 14.7403 15.4525 14.8169 15.255 15.109C15.0759 15.3738 14.7795 15.5319 14.4618 15.5319C14.1484 15.5319 13.854 15.377 13.6745 15.1176C13.4739 14.8277 13.0764 14.7553 12.7863 14.9559C12.4965 15.1566 12.4241 15.5541 12.6247 15.844C13.0428 16.448 13.7295 16.8085 14.4619 16.8085Z" fill="#1D2328"/>
<path d="M15.2139 24.3646C15.2139 27.0037 17.3611 29.1509 20.0001 29.1509C22.6392 29.1509 24.7864 27.0038 24.7864 24.3646C24.7864 21.7254 22.6392 19.5784 20.0001 19.5784C17.361 19.5784 15.2139 21.7255 15.2139 24.3646ZM23.5097 24.3646C23.5097 26.2998 21.9353 27.8742 20.0001 27.8742C18.0649 27.8742 16.4905 26.2998 16.4905 24.3646C16.4905 22.4294 18.0649 20.855 20.0001 20.855C21.9353 20.855 23.5097 22.4294 23.5097 24.3646Z" fill="#1D2328"/>
<path d="M19.2077 24.9067C19.0071 24.6169 18.6096 24.5444 18.3195 24.7451C18.0297 24.9457 17.9573 25.3433 18.1579 25.6331C18.5759 26.237 19.2625 26.5976 19.995 26.5976C20.7371 26.5976 21.429 26.2296 21.8457 25.613C22.0431 25.3209 21.9664 24.9242 21.6743 24.7267C21.3824 24.5293 20.9856 24.6061 20.7881 24.898C20.609 25.1629 20.3125 25.3209 19.9949 25.3209C19.6816 25.321 19.3872 25.1662 19.2077 24.9067Z" fill="#1D2328"/>
<path d="M8.93419 29.1509C11.5733 29.1509 13.7204 27.0038 13.7204 24.3646C13.7204 21.7254 11.5732 19.5784 8.93419 19.5784C6.29505 19.5784 4.14795 21.7256 4.14795 24.3646C4.14795 27.0037 6.29505 29.1509 8.93419 29.1509ZM8.93419 20.8549C10.8694 20.8549 12.4438 22.4294 12.4438 24.3645C12.4438 26.2998 10.8694 27.8741 8.93419 27.8741C6.99896 27.8741 5.42459 26.2998 5.42459 24.3645C5.42451 22.4294 6.99888 20.8549 8.93419 20.8549Z" fill="#1D2328"/>
<path d="M8.93407 26.5978C9.67618 26.5978 10.3681 26.2298 10.7848 25.6133C10.9822 25.3212 10.9056 24.9245 10.6134 24.727C10.3215 24.5295 9.92469 24.6063 9.72719 24.8983C9.54813 25.1631 9.25165 25.3212 8.93399 25.3212C8.62056 25.3212 8.32618 25.1663 8.14665 24.9069C7.9461 24.617 7.54868 24.5445 7.25845 24.7452C6.96868 24.9459 6.89626 25.3434 7.09689 25.6333C7.51501 26.2373 8.20165 26.5978 8.93407 26.5978Z" fill="#1D2328"/>
<path d="M12.8499 32.0187C12.9916 31.6959 12.8449 31.3194 12.5221 31.1776C11.3886 30.6798 10.1814 30.4275 8.93412 30.4275C4.00788 30.4274 0 34.4353 0 39.3616C0 39.7141 0.285702 39.9999 0.63828 39.9999C0.990857 39.9999 1.27656 39.7141 1.27656 39.3616C1.27656 35.1392 4.71171 31.7041 8.93412 31.7041C10.0036 31.7041 11.0381 31.9202 12.0088 32.3465C12.3318 32.4881 12.7082 32.3415 12.8499 32.0187Z" fill="#1D2328"/>
<path d="M26.2793 24.3646C26.2793 27.0037 28.4264 29.1509 31.0655 29.1509C33.7047 29.1509 35.8518 27.0038 35.8518 24.3646C35.8518 21.7254 33.7048 19.5784 31.0655 19.5784C28.4265 19.5783 26.2793 21.7255 26.2793 24.3646ZM31.0655 20.8549C33.0008 20.8549 34.5751 22.4294 34.5751 24.3645C34.5751 26.2998 33.0008 27.8741 31.0655 27.8741C29.1303 27.8741 27.5559 26.2998 27.5559 24.3645C27.5559 22.4294 29.1303 20.8549 31.0655 20.8549Z" fill="#1D2328"/>
<path d="M31.061 26.5978C31.8031 26.5978 32.4951 26.2298 32.9117 25.6133C33.1091 25.3212 33.0325 24.9245 32.7404 24.727C32.4486 24.5295 32.0516 24.6063 31.8541 24.8983C31.6751 25.1631 31.3786 25.3212 31.0609 25.3212C30.7475 25.3212 30.4531 25.1663 30.2736 24.9069C30.0731 24.617 29.6756 24.5445 29.3854 24.7452C29.0956 24.9459 29.0232 25.3434 29.2238 25.6333C29.6419 26.2373 30.3285 26.5978 31.061 26.5978Z" fill="#1D2328"/>
<path d="M31.0658 30.4275C29.8186 30.4275 28.6115 30.6798 27.478 31.1776C27.1552 31.3194 27.0085 31.6959 27.1502 32.0187C27.2919 32.3415 27.6684 32.4882 27.9913 32.3466C28.9619 31.9202 29.9964 31.7041 31.0658 31.7041C35.2882 31.7041 38.7234 35.1393 38.7234 39.3617C38.7234 39.7142 39.0091 40 39.3617 40C39.7142 40 40 39.7142 40 39.3617C40 34.4354 35.9921 30.4275 31.0658 30.4275Z" fill="#1D2328"/>
<path d="M20.0001 30.4275C15.0737 30.4275 11.0659 34.4353 11.0659 39.3616C11.0659 39.7141 11.3516 39.9999 11.7042 39.9999C12.0568 39.9999 12.3425 39.7141 12.3425 39.3616C12.3425 35.1392 15.7776 31.7041 20 31.7041C24.2225 31.7041 27.6576 35.1393 27.6576 39.3616C27.6576 39.7141 27.9433 39.9999 28.2959 39.9999C28.6485 39.9999 28.9342 39.7141 28.9342 39.3616C28.9342 34.4353 24.9264 30.4275 20.0001 30.4275Z" fill="#1D2328"/>
<path d="M20.7466 14.5755C20.7466 17.2147 22.8937 19.3618 25.5328 19.3618C28.172 19.3618 30.3191 17.2146 30.3191 14.5755C30.3191 11.9364 28.172 9.78931 25.5328 9.78931C22.8938 9.78938 20.7466 11.9364 20.7466 14.5755ZM25.5329 11.0659C27.4681 11.0659 29.0425 12.6403 29.0425 14.5755C29.0425 16.5108 27.4681 18.0851 25.5329 18.0851C23.5977 18.0851 22.0233 16.5108 22.0233 14.5755C22.0233 12.6403 23.5976 11.0659 25.5329 11.0659Z" fill="#1D2328"/>
<path d="M25.5277 16.8085C26.2698 16.8085 26.9617 16.4405 27.3784 15.824C27.5758 15.5319 27.4991 15.1352 27.207 14.9377C26.9151 14.7403 26.5183 14.8169 26.3208 15.109C26.1416 15.3738 25.8452 15.5319 25.5276 15.5319C25.2142 15.5319 24.9198 15.377 24.7402 15.1176C24.5396 14.8277 24.1422 14.7553 23.8522 14.9559C23.5624 15.1566 23.49 15.5541 23.6906 15.844C24.1086 16.448 24.7953 16.8085 25.5277 16.8085Z" fill="#1D2328"/>
</g>
<defs>
<clipPath id="clip0_110_45">
<rect width="40" height="40" fill="white"/>
</clipPath>
</defs>
</svg>
