<svg width="184" height="50" viewBox="0 0 184 50" fill="none" xmlns="http://www.w3.org/2000/svg">
<g clip-path="url(#clip0_1_77)">
<path d="M20.3428 0C5.74171 9.86533 4.6795 24.3617 4.6795 29.6809C4.6795 38.5227 10.3269 46.0454 18.2113 48.8388C18.2113 48.8388 24.9995 48.0469 24.9999 48.0469L26.953 33.7888L24.9999 13.6959C20.2422 8.9624 20.3428 0 20.3428 0Z" fill="#FF8848"/>
<path d="M45.3178 29.6809C45.1051 16.7022 32.7647 6.38306 32.7647 6.38306C31.4171 11.7731 27.3392 15.4212 27.3392 15.4212C26.4517 14.9571 25.6768 14.3692 25.0001 13.6959V48.0469L30.727 49.1855C39.2064 46.7167 45.4693 38.9177 45.3178 29.6809Z" fill="#FF4C4C"/>
<path d="M24.4657 22.0095C23.7187 22.03 23.0555 22.3671 22.5887 22.8872C22.211 21.9135 21.2942 21.2013 20.197 21.1712C18.6984 21.1301 17.4706 22.3327 17.4706 23.8221V29.0106H17.1636C15.401 29.0106 13.9721 30.4395 13.9721 32.2023V33.5701C13.9721 37.6419 15.1268 39.9371 18.212 40.992V48.837C20.3349 49.5893 22.6193 50 24.9999 50H25L26.9532 34.6262L25 22.0503C24.8269 22.0199 24.6487 22.0044 24.4657 22.0095Z" fill="#FDD1A3"/>
<path d="M33.5066 23.6929C32.687 23.6543 31.9444 23.9881 31.4334 24.5396C31.0596 23.5573 30.1387 22.8372 29.0354 22.8069C28.229 22.7849 27.5014 23.1231 27.0009 23.6722C26.6642 22.8346 25.9122 22.2102 25.0001 22.0503V50C26.9836 50 28.9059 49.7145 30.7266 49.1845V40.8855C33.8119 39.8307 36.0304 36.9063 36.0304 33.4637V26.3993C36.0304 24.9744 34.9299 23.7599 33.5066 23.6929Z" fill="#FFBB85"/>
</g>
<path d="M59.28 19.99V40H63.18V32.59H65.7C68.01 32.59 69.66 31.93 70.77 30.82C72.3 29.29 72.42 27.13 72.42 26.35C72.42 24.91 72 22.96 70.38 21.52C68.91 20.23 67.35 19.99 65.1 19.99H59.28ZM63.18 23.35H64.53C65.46 23.35 66.48 23.41 67.29 23.98C67.86 24.4 68.4 25.15 68.4 26.26C68.4 27.13 68.04 28.03 67.32 28.6C66.48 29.23 65.52 29.23 64.77 29.23H63.18V23.35ZM85.0254 19.54C78.7254 19.54 74.3454 23.92 74.3454 30.01C74.3454 36.1 78.7254 40.45 85.0254 40.45C91.3254 40.45 95.7054 36.1 95.7054 30.01C95.7054 23.92 91.3254 19.54 85.0254 19.54ZM85.0254 36.91C81.1254 36.91 78.3654 34.06 78.3654 30.01C78.3654 25.96 81.1254 23.08 85.0254 23.08C88.9254 23.08 91.6854 25.96 91.6854 30.01C91.6854 34.06 88.9254 36.91 85.0254 36.91ZM99.2995 19.99V40H109.38V36.64H103.2V19.99H99.2995ZM112.073 19.99V40H115.973V19.99H112.073ZM131.34 23.35V19.99H118.44V23.35H122.94V40H126.84V23.35H131.34ZM133.811 19.99V40H137.711V19.99H133.811ZM155.898 40H160.098L151.728 19.99H148.668L140.058 40H144.288L146.058 35.8H154.128L155.898 40ZM147.288 32.62L150.138 25.42L152.988 32.62H147.288ZM166.334 40V26.62L178.514 40H181.214V19.99H177.314V33.34L165.134 19.99H162.434V40H166.334Z" fill="white"/>
<defs>
<clipPath id="clip0_1_77">
<rect width="50" height="50" fill="white"/>
</clipPath>
</defs>
</svg>
